<svg xmlns="http://www.w3.org/2000/svg" width="238.475" height="180.813" viewBox="0 0 238.475 180.813">
  <g id="_404-error" data-name="404-error" transform="translate(0 -61.9)">
    <path id="Path_43" data-name="Path 43" d="M238.475,77.5V227.115a15.6,15.6,0,0,1-15.6,15.6H15.6A15.6,15.6,0,0,1,0,227.116V77.5A15.6,15.6,0,0,1,15.6,61.9H222.872A15.6,15.6,0,0,1,238.475,77.5Z" transform="translate(0 -0.001)" fill="#3781c2"/>
    <path id="Path_44" data-name="Path 44" d="M238.476,77.5V101.99H0V77.5A15.6,15.6,0,0,1,15.6,61.9H222.873A15.6,15.6,0,0,1,238.476,77.5Z" transform="translate(-0.001)" fill="#eaeaea"/>
    <circle id="Ellipse_1" data-name="Ellipse 1" cx="8.034" cy="8.034" r="8.034" transform="translate(16.817 73.518)" fill="#f9572b"/>
    <circle id="Ellipse_2" data-name="Ellipse 2" cx="8.034" cy="8.034" r="8.034" transform="translate(43.866 73.518)" fill="#fcc63d"/>
    <circle id="Ellipse_3" data-name="Ellipse 3" cx="8.034" cy="8.034" r="8.034" transform="translate(70.911 73.518)" fill="#45b8c4"/>
    <g id="Group_14" data-name="Group 14" transform="translate(25.713 129.666)">
      <path id="Path_45" data-name="Path 45" d="M86.056,269.528H59.984a4.621,4.621,0,0,1-4.779-5c0-.869,14.338-53.446,14.338-53.446a6.333,6.333,0,0,1,5.974-3.694c2.5,0,8.764,1.686,8.764,4.945a5.994,5.994,0,0,1-.3,2.333L73.346,256.383h12.71V244.977c0-3.15,3.585-4.454,7.061-4.454,3.586,0,7.061,1.3,7.061,4.454v11.406h5.105c2.933,0,4.454,3.259,4.454,6.627,0,3.259-2.173,6.518-4.454,6.518h-5.105v12.819c0,2.933-3.477,4.454-7.061,4.454-3.477,0-7.061-1.521-7.061-4.454V269.528Z" transform="translate(-55.205 -207.391)" fill="#fcc63d"/>
      <path id="Path_46" data-name="Path 46" d="M370.565,269.528H344.493a4.621,4.621,0,0,1-4.779-5c0-.869,14.338-53.446,14.338-53.446a6.333,6.333,0,0,1,5.974-3.694c2.5,0,8.764,1.686,8.764,4.945a5.994,5.994,0,0,1-.3,2.333l-10.636,41.714h12.71V244.977c0-3.15,3.585-4.454,7.061-4.454,3.586,0,7.061,1.3,7.061,4.454v11.406h5.105c2.933,0,4.454,3.259,4.454,6.627,0,3.259-2.173,6.518-4.454,6.518h-5.105v12.819c0,2.933-3.477,4.454-7.061,4.454-3.477,0-7.061-1.521-7.061-4.454V269.528Z" transform="translate(-207.198 -207.391)" fill="#fcc63d"/>
      <path id="Path_47" data-name="Path 47" d="M198.919,262.575V232.267c0-18.141,11.08-24.876,25.419-24.876s25.528,6.735,25.528,24.876v30.308c0,18.141-11.189,24.876-25.528,24.876S198.919,280.717,198.919,262.575Zm36.825-30.308c0-8.582-4.345-12.492-11.406-12.492-7.17,0-11.3,3.911-11.3,12.492v30.308c0,8.582,4.128,12.492,11.3,12.492,7.061,0,11.406-3.911,11.406-12.492Z" transform="translate(-131.981 -207.391)" fill="#fcc63d"/>
    </g>
  </g>
</svg>
