<svg xmlns="http://www.w3.org/2000/svg" width="38.588" height="7.718" viewBox="0 0 38.588 7.718">
  <g id="Group_1" data-name="Group 1" transform="translate(-1250.5 -25.5)">
    <g id="overflow-menu-horizontal" transform="translate(1250.5 25.5)">
      <path id="Path_1" data-name="Path 1" d="M14.468,19.609a3.859,3.859,0,1,1-3.859-3.859A3.859,3.859,0,0,1,14.468,19.609Z" transform="translate(-6.75 -15.75)" fill="#7eca9c"/>
      <path id="Path_2" data-name="Path 2" d="M23.468,19.609a3.859,3.859,0,1,1-3.859-3.859A3.859,3.859,0,0,1,23.468,19.609Z" transform="translate(-0.315 -15.75)" fill="#7eca9c"/>
      <path id="Path_3" data-name="Path 3" d="M32.468,19.609a3.859,3.859,0,1,1-3.859-3.859A3.859,3.859,0,0,1,32.468,19.609Z" transform="translate(6.121 -15.75)" fill="#7eca9c"/>
    </g>
  </g>
</svg>
