<svg xmlns="http://www.w3.org/2000/svg" width="17.778" height="13.333" viewBox="0 0 17.778 13.333">
  <g id="landscape-line" transform="translate(-1.111 -3.333)">
    <path id="Path_15" data-name="Path 15" d="M17.778,3.333H2.222A1.111,1.111,0,0,0,1.111,4.444V15.555a1.111,1.111,0,0,0,1.111,1.111H17.778a1.111,1.111,0,0,0,1.111-1.111V4.444a1.111,1.111,0,0,0-1.111-1.111Zm0,12.222H2.222V4.444H17.778Z" fill="#085758"/>
    <path id="Path_16" data-name="Path 16" d="M5,12.222a.456.456,0,0,0,.306-.117.444.444,0,0,0,0-.628L4.35,10.444h11.3l-.956,1.033a.444.444,0,0,0,0,.628.456.456,0,0,0,.306.117.433.433,0,0,0,.322-.144L17.272,10,15.344,7.922a.439.439,0,0,0-.628,0,.444.444,0,0,0,0,.628l.956,1.033H4.35L5.306,8.55a.444.444,0,0,0,0-.628.439.439,0,0,0-.628,0L2.728,10l1.928,2.078A.433.433,0,0,0,5,12.222Z" fill="#085758"/>
  </g>
</svg>
