<svg xmlns="http://www.w3.org/2000/svg" width="15" height="15" viewBox="0 0 15 15">
  <g id="landscape-line" transform="translate(-1766 78)">
    <rect id="Rectangle_8" data-name="Rectangle 8" width="15" height="15" transform="translate(1766 -78)" fill="#fff" opacity="0"/>
    <g id="landscape-line-2" data-name="landscape-line" transform="translate(1764.889 -79.333)">
      <path id="Path_15" data-name="Path 15" d="M15.174,3.333H2.048a.937.937,0,0,0-.937.937v9.375a.937.937,0,0,0,.937.937H15.174a.937.937,0,0,0,.937-.937V4.27a.937.937,0,0,0-.937-.937Zm0,10.312H2.048V4.27H15.174Z" fill="#085758"/>
      <path id="Path_16" data-name="Path 16" d="M4.645,11.529a.385.385,0,0,0,.258-.1.375.375,0,0,0,0-.53L4.1,10.029h9.534l-.807.872a.375.375,0,0,0,0,.53.385.385,0,0,0,.258.1.365.365,0,0,0,.272-.121L15,9.655,13.373,7.9a.37.37,0,0,0-.53,0,.375.375,0,0,0,0,.53l.807.872H4.1L4.9,8.431a.375.375,0,0,0,0-.53.37.37,0,0,0-.53,0L2.728,9.655l1.627,1.753a.365.365,0,0,0,.29.121Z" transform="translate(-0.253 -0.696)" fill="#085758"/>
    </g>
  </g>
</svg>
