<svg xmlns="http://www.w3.org/2000/svg" width="17.5" height="17.5" viewBox="0 0 17.5 17.5">
  <g id="map" transform="translate(-1.25 -1.25)">
    <path id="Path_40" data-name="Path 40" d="M10,15,6.194,9.625A5.088,5.088,0,0,1,10,1.25a5.05,5.05,0,0,1,5,5.081,5.125,5.125,0,0,1-1.125,3.206ZM10,2.5A3.794,3.794,0,0,0,6.25,6.331a3.869,3.869,0,0,0,.931,2.5L10,12.825,12.894,8.75a3.9,3.9,0,0,0,.856-2.419A3.794,3.794,0,0,0,10,2.5Z" fill="#085758"/>
    <path id="Path_41" data-name="Path 41" d="M11.25,5.625A1.25,1.25,0,1,1,10,4.375,1.25,1.25,0,0,1,11.25,5.625Z" fill="#085758"/>
    <path id="Path_42" data-name="Path 42" d="M17.5,7.5H16.25V8.75H17.5V17.5H2.5V8.75H3.75V7.5H2.5A1.25,1.25,0,0,0,1.25,8.75V17.5A1.25,1.25,0,0,0,2.5,18.75h15a1.25,1.25,0,0,0,1.25-1.25V8.75A1.25,1.25,0,0,0,17.5,7.5Z" fill="#085758"/>
  </g>
</svg>
