<svg xmlns="http://www.w3.org/2000/svg" width="15" height="15" viewBox="0 0 15 15">
  <g id="plant" transform="translate(-1801 78)">
    <rect id="Rectangle_8" data-name="Rectangle 8" width="15" height="15" transform="translate(1801 -78)" fill="#fff" opacity="0"/>
    <path id="plant-2" data-name="plant" d="M13,4.035A9.417,9.417,0,0,0,9.61.672L9.36.528,9.111.672A9.36,9.36,0,0,0,4.43,8.783c0,.107,0,.216.006.323a4.738,4.738,0,0,0,1.611,3.545A5.006,5.006,0,0,0,8.863,13.81v1.718h.995V7.569H8.863v5.239A3.733,3.733,0,0,1,5.43,9.073c0-.1,0-.193,0-.29a8.4,8.4,0,0,1,3.936-7.1,8.4,8.4,0,0,1,3.936,7.1c0,.1,0,.193,0,.29a3.672,3.672,0,0,1-2.439,3.5v1.053a4.856,4.856,0,0,0,1.822-.973,4.736,4.736,0,0,0,1.611-3.545c0-.107.006-.216.006-.323A9.356,9.356,0,0,0,13,4.035Z" transform="translate(1799.57 -78.528)" fill="#085758"/>
  </g>
</svg>
