<svg xmlns="http://www.w3.org/2000/svg" width="12.39" height="18.847" viewBox="0 0 12.39 18.847">
  <path id="plant" d="M15.2,4.934A11.832,11.832,0,0,0,10.938.709L10.625.528l-.313.181A11.761,11.761,0,0,0,4.43,10.9c0,.135,0,.271.007.406A5.953,5.953,0,0,0,6.461,15.76,6.29,6.29,0,0,0,10,17.216v2.159h1.25v-10H10v6.583a4.69,4.69,0,0,1-4.314-4.694c0-.121-.006-.243-.006-.364a10.558,10.558,0,0,1,4.945-8.921A10.558,10.558,0,0,1,15.57,10.9c0,.12,0,.243-.006.364a4.614,4.614,0,0,1-3.064,4.4v1.323a6.1,6.1,0,0,0,2.289-1.223,5.951,5.951,0,0,0,2.024-4.454c0-.135.007-.272.007-.406A11.756,11.756,0,0,0,15.2,4.934Z" transform="translate(-4.43 -0.528)" fill="#085758"/>
</svg>
