<svg xmlns="http://www.w3.org/2000/svg" width="18.334" height="18.334" viewBox="0 0 18.334 18.334">
  <g id="profile" transform="translate(-0.833 -0.833)">
    <path id="Path_11" data-name="Path 11" d="M13.333,7.5A3.333,3.333,0,1,1,10,4.167,3.334,3.334,0,0,1,13.333,7.5Zm-1.667,0A1.667,1.667,0,1,1,10,5.874,1.667,1.667,0,0,1,11.666,7.5Z" fill="#085758" fill-rule="evenodd"/>
    <path id="Path_12" data-name="Path 12" d="M10,.833A9.167,9.167,0,1,0,19.167,10,9.168,9.168,0,0,0,10,.833ZM2.5,10a7.468,7.468,0,0,0,1.59,4.618,7.5,7.5,0,0,1,11.874-.069A7.5,7.5,0,1,0,2.5,10ZM10,17.5a7.469,7.469,0,0,1-4.727-1.677,5.835,5.835,0,0,1,9.522-.057A7.47,7.47,0,0,1,10,17.5Z" fill="#085758" fill-rule="evenodd"/>
  </g>
</svg>
