<svg xmlns="http://www.w3.org/2000/svg" width="13.75" height="17.847" viewBox="0 0 13.75 17.847">
  <path id="sprout" d="M15.625,1.25a6.881,6.881,0,0,0-6.4,4.39,4.371,4.371,0,0,0-3.6-1.89H3.75V5.625A4.38,4.38,0,0,0,8.125,10H8.75v5.656a6.2,6.2,0,0,0-3.794,1.8l.884.884a5,5,0,0,1,7.693.758l1.038-.7A6.238,6.238,0,0,0,10,15.664V10h.625A6.883,6.883,0,0,0,17.5,3.125V1.25Zm-7.5,7.5A3.129,3.129,0,0,1,5,5.625V5h.625A3.128,3.128,0,0,1,8.75,8.125V8.75ZM16.25,3.125A5.631,5.631,0,0,1,10.625,8.75H10V8.125A5.631,5.631,0,0,1,15.625,2.5h.625Z" transform="translate(-3.75 -1.25)" fill="#fff"/>
</svg>
